<mxfile host="app.diagrams.net" modified="2022-03-24T10:42:24.331Z" agent="5.0 (Windows NT 10.0; Win64; x64) AppleWebKit/537.36 (KHTML, like Gecko) Chrome/99.0.4844.74 Safari/537.36 Edg/99.0.1150.46" etag="3fOx6Vr_akhLgEHVSbcs" version="15.9.4" type="github">
  <diagram id="BAA0ArFGhKF2wlruNVeB" name="Page-1">
    <mxGraphModel dx="1480" dy="907" grid="0" gridSize="10" guides="1" tooltips="1" connect="1" arrows="1" fold="1" page="1" pageScale="1" pageWidth="827" pageHeight="1169" math="0" shadow="0">
      <root>
        <mxCell id="0" />
        <mxCell id="1" parent="0" />
        <mxCell id="k9xyUMdjobzih4P8aj01-8" value="" style="outlineConnect=0;gradientColor=#b3b3b3;html=1;whiteSpace=wrap;fontSize=18;fontStyle=0;strokeColor=#666666;fillColor=#f5f5f5;verticalAlign=bottom;align=center;dashed=1;spacingTop=3;labelPosition=center;verticalLabelPosition=top;horizontal=1;" parent="1" vertex="1">
          <mxGeometry x="39" y="720" width="680" height="200" as="geometry" />
        </mxCell>
        <mxCell id="k9xyUMdjobzih4P8aj01-16" style="edgeStyle=orthogonalEdgeStyle;rounded=0;orthogonalLoop=1;jettySize=auto;html=1;exitX=0.5;exitY=1;exitDx=0;exitDy=0;exitPerimeter=0;strokeWidth=2;fillColor=#fff2cc;gradientColor=#ffd966;strokeColor=#d6b656;" parent="1" source="k9xyUMdjobzih4P8aj01-13" target="k9xyUMdjobzih4P8aj01-2" edge="1">
          <mxGeometry relative="1" as="geometry" />
        </mxCell>
        <mxCell id="k9xyUMdjobzih4P8aj01-17" style="edgeStyle=orthogonalEdgeStyle;rounded=0;orthogonalLoop=1;jettySize=auto;html=1;exitX=0.5;exitY=1;exitDx=0;exitDy=0;exitPerimeter=0;strokeWidth=2;fillColor=#fff2cc;gradientColor=#ffd966;strokeColor=#d6b656;" parent="1" source="k9xyUMdjobzih4P8aj01-13" target="k9xyUMdjobzih4P8aj01-9" edge="1">
          <mxGeometry relative="1" as="geometry" />
        </mxCell>
        <mxCell id="k9xyUMdjobzih4P8aj01-18" style="edgeStyle=orthogonalEdgeStyle;rounded=0;orthogonalLoop=1;jettySize=auto;html=1;exitX=0.5;exitY=1;exitDx=0;exitDy=0;exitPerimeter=0;strokeWidth=2;fillColor=#fff2cc;gradientColor=#ffd966;strokeColor=#d6b656;" parent="1" source="k9xyUMdjobzih4P8aj01-13" target="k9xyUMdjobzih4P8aj01-10" edge="1">
          <mxGeometry relative="1" as="geometry">
            <Array as="points">
              <mxPoint x="180" y="705" />
              <mxPoint x="560" y="705" />
            </Array>
          </mxGeometry>
        </mxCell>
        <mxCell id="k9xyUMdjobzih4P8aj01-61" style="edgeStyle=elbowEdgeStyle;rounded=0;orthogonalLoop=1;jettySize=auto;elbow=vertical;html=1;exitX=0.5;exitY=0;exitDx=0;exitDy=0;exitPerimeter=0;dashed=1;fontSize=18;endArrow=none;endFill=0;strokeColor=#97D077;strokeWidth=2;" parent="1" source="k9xyUMdjobzih4P8aj01-13" target="k9xyUMdjobzih4P8aj01-1" edge="1">
          <mxGeometry relative="1" as="geometry" />
        </mxCell>
        <mxCell id="k9xyUMdjobzih4P8aj01-62" style="edgeStyle=elbowEdgeStyle;rounded=0;orthogonalLoop=1;jettySize=auto;elbow=vertical;html=1;exitX=0.5;exitY=0;exitDx=0;exitDy=0;exitPerimeter=0;dashed=1;fontSize=18;endArrow=none;endFill=0;strokeColor=#97D077;strokeWidth=2;" parent="1" source="k9xyUMdjobzih4P8aj01-13" target="k9xyUMdjobzih4P8aj01-40" edge="1">
          <mxGeometry relative="1" as="geometry" />
        </mxCell>
        <mxCell id="k9xyUMdjobzih4P8aj01-63" style="edgeStyle=elbowEdgeStyle;rounded=0;orthogonalLoop=1;jettySize=auto;elbow=vertical;html=1;exitX=0.5;exitY=0;exitDx=0;exitDy=0;exitPerimeter=0;dashed=1;fontSize=18;endArrow=none;endFill=0;strokeColor=#97D077;strokeWidth=2;" parent="1" source="k9xyUMdjobzih4P8aj01-13" target="k9xyUMdjobzih4P8aj01-43" edge="1">
          <mxGeometry relative="1" as="geometry" />
        </mxCell>
        <mxCell id="k9xyUMdjobzih4P8aj01-64" style="edgeStyle=elbowEdgeStyle;rounded=0;orthogonalLoop=1;jettySize=auto;elbow=vertical;html=1;exitX=0.5;exitY=0;exitDx=0;exitDy=0;exitPerimeter=0;dashed=1;fontSize=18;endArrow=none;endFill=0;strokeColor=#97D077;strokeWidth=2;" parent="1" source="k9xyUMdjobzih4P8aj01-13" target="k9xyUMdjobzih4P8aj01-46" edge="1">
          <mxGeometry relative="1" as="geometry" />
        </mxCell>
        <mxCell id="k9xyUMdjobzih4P8aj01-65" style="edgeStyle=elbowEdgeStyle;rounded=0;orthogonalLoop=1;jettySize=auto;elbow=vertical;html=1;exitX=0.5;exitY=0;exitDx=0;exitDy=0;exitPerimeter=0;dashed=1;fontSize=18;endArrow=none;endFill=0;strokeColor=#97D077;strokeWidth=2;" parent="1" source="k9xyUMdjobzih4P8aj01-13" target="k9xyUMdjobzih4P8aj01-49" edge="1">
          <mxGeometry relative="1" as="geometry" />
        </mxCell>
        <mxCell id="k9xyUMdjobzih4P8aj01-13" value="1000M TCP 管理网" style="fontColor=#0066CC;verticalAlign=bottom;verticalLabelPosition=top;labelPosition=center;align=center;html=1;outlineConnect=0;fillColor=#CCCCCC;strokeColor=#6881B3;gradientColor=none;gradientDirection=north;strokeWidth=2;shape=mxgraph.networks.switch;" parent="1" vertex="1">
          <mxGeometry x="85" y="600" width="190" height="40" as="geometry" />
        </mxCell>
        <mxCell id="k9xyUMdjobzih4P8aj01-29" style="edgeStyle=elbowEdgeStyle;rounded=0;orthogonalLoop=1;jettySize=auto;elbow=vertical;html=1;exitX=0.5;exitY=1;exitDx=0;exitDy=0;exitPerimeter=0;endArrow=classic;endFill=1;strokeWidth=2;fillColor=#1ba1e2;strokeColor=#006EAF;" parent="1" source="k9xyUMdjobzih4P8aj01-19" target="k9xyUMdjobzih4P8aj01-10" edge="1">
          <mxGeometry relative="1" as="geometry">
            <Array as="points">
              <mxPoint x="534" y="796" />
            </Array>
          </mxGeometry>
        </mxCell>
        <mxCell id="k9xyUMdjobzih4P8aj01-71" style="edgeStyle=orthogonalEdgeStyle;rounded=0;orthogonalLoop=1;jettySize=auto;html=1;exitX=0.5;exitY=1;exitDx=0;exitDy=0;exitPerimeter=0;fontSize=18;endArrow=classic;endFill=1;strokeColor=#006EAF;strokeWidth=2;fillColor=#1ba1e2;" parent="1" source="k9xyUMdjobzih4P8aj01-19" target="k9xyUMdjobzih4P8aj01-2" edge="1">
          <mxGeometry relative="1" as="geometry">
            <Array as="points">
              <mxPoint x="587" y="674" />
              <mxPoint x="196" y="674" />
            </Array>
          </mxGeometry>
        </mxCell>
        <mxCell id="k9xyUMdjobzih4P8aj01-72" style="edgeStyle=orthogonalEdgeStyle;rounded=0;orthogonalLoop=1;jettySize=auto;html=1;exitX=0.5;exitY=1;exitDx=0;exitDy=0;exitPerimeter=0;fontSize=18;endArrow=classic;endFill=1;strokeColor=#006EAF;strokeWidth=2;fillColor=#1ba1e2;" parent="1" source="k9xyUMdjobzih4P8aj01-19" target="k9xyUMdjobzih4P8aj01-9" edge="1">
          <mxGeometry relative="1" as="geometry">
            <Array as="points">
              <mxPoint x="587" y="675" />
              <mxPoint x="393" y="675" />
            </Array>
          </mxGeometry>
        </mxCell>
        <mxCell id="k9xyUMdjobzih4P8aj01-19" value="1000M TCP 集群通信" style="fontColor=#0066CC;verticalAlign=bottom;verticalLabelPosition=top;labelPosition=center;align=center;html=1;outlineConnect=0;fillColor=#CCCCCC;strokeColor=#6881B3;gradientColor=none;gradientDirection=north;strokeWidth=2;shape=mxgraph.networks.switch;" parent="1" vertex="1">
          <mxGeometry x="492" y="600" width="190" height="40" as="geometry" />
        </mxCell>
        <mxCell id="k9xyUMdjobzih4P8aj01-2" value="GPU -Server-1" style="sketch=0;outlineConnect=0;dashed=0;verticalLabelPosition=bottom;verticalAlign=top;align=center;html=1;fontSize=12;fontStyle=0;aspect=fixed;shape=mxgraph.aws4.resourceIcon;resIcon=mxgraph.aws4.traditional_server;strokeColor=#97D077;" parent="1" vertex="1">
          <mxGeometry x="130" y="770" width="100" height="100" as="geometry" />
        </mxCell>
        <mxCell id="k9xyUMdjobzih4P8aj01-9" value="GPU-Server-2" style="sketch=0;outlineConnect=0;dashed=0;verticalLabelPosition=bottom;verticalAlign=top;align=center;html=1;fontSize=12;fontStyle=0;aspect=fixed;shape=mxgraph.aws4.resourceIcon;resIcon=mxgraph.aws4.traditional_server;strokeColor=#97D077;" parent="1" vertex="1">
          <mxGeometry x="320" y="770" width="100" height="100" as="geometry" />
        </mxCell>
        <mxCell id="k9xyUMdjobzih4P8aj01-10" value="CPU-Server-1" style="sketch=0;outlineConnect=0;fontColor=#232F3E;gradientColor=none;strokeColor=#232F3E;fillColor=#ffffff;dashed=0;verticalLabelPosition=bottom;verticalAlign=top;align=center;html=1;fontSize=12;fontStyle=0;aspect=fixed;shape=mxgraph.aws4.resourceIcon;resIcon=mxgraph.aws4.traditional_server;" parent="1" vertex="1">
          <mxGeometry x="510" y="770" width="100" height="100" as="geometry" />
        </mxCell>
        <mxCell id="k9xyUMdjobzih4P8aj01-38" value="" style="group" parent="1" vertex="1" connectable="0">
          <mxGeometry x="85" y="294" width="60" height="142" as="geometry" />
        </mxCell>
        <mxCell id="k9xyUMdjobzih4P8aj01-1" value="Client" style="sketch=0;outlineConnect=0;fontColor=#232F3E;gradientColor=none;strokeColor=#232F3E;fillColor=#ffffff;dashed=0;verticalLabelPosition=bottom;verticalAlign=top;align=center;html=1;fontSize=12;fontStyle=0;aspect=fixed;shape=mxgraph.aws4.resourceIcon;resIcon=mxgraph.aws4.client;" parent="k9xyUMdjobzih4P8aj01-38" vertex="1">
          <mxGeometry y="82" width="60" height="60" as="geometry" />
        </mxCell>
        <mxCell id="k9xyUMdjobzih4P8aj01-6" value="User" style="sketch=0;outlineConnect=0;fontColor=#232F3E;gradientColor=none;strokeColor=#232F3E;fillColor=#ffffff;dashed=0;verticalLabelPosition=bottom;verticalAlign=top;align=center;html=1;fontSize=12;fontStyle=0;aspect=fixed;shape=mxgraph.aws4.resourceIcon;resIcon=mxgraph.aws4.user;" parent="k9xyUMdjobzih4P8aj01-38" vertex="1">
          <mxGeometry width="60" height="60" as="geometry" />
        </mxCell>
        <mxCell id="k9xyUMdjobzih4P8aj01-39" value="" style="group" parent="1" vertex="1" connectable="0">
          <mxGeometry x="222" y="294" width="60" height="142" as="geometry" />
        </mxCell>
        <mxCell id="k9xyUMdjobzih4P8aj01-40" value="Client" style="sketch=0;outlineConnect=0;fontColor=#232F3E;gradientColor=none;strokeColor=#232F3E;fillColor=#ffffff;dashed=0;verticalLabelPosition=bottom;verticalAlign=top;align=center;html=1;fontSize=12;fontStyle=0;aspect=fixed;shape=mxgraph.aws4.resourceIcon;resIcon=mxgraph.aws4.client;" parent="k9xyUMdjobzih4P8aj01-39" vertex="1">
          <mxGeometry y="82" width="60" height="60" as="geometry" />
        </mxCell>
        <mxCell id="k9xyUMdjobzih4P8aj01-41" value="User" style="sketch=0;outlineConnect=0;fontColor=#232F3E;gradientColor=none;strokeColor=#232F3E;fillColor=#ffffff;dashed=0;verticalLabelPosition=bottom;verticalAlign=top;align=center;html=1;fontSize=12;fontStyle=0;aspect=fixed;shape=mxgraph.aws4.resourceIcon;resIcon=mxgraph.aws4.user;" parent="k9xyUMdjobzih4P8aj01-39" vertex="1">
          <mxGeometry width="60" height="60" as="geometry" />
        </mxCell>
        <mxCell id="k9xyUMdjobzih4P8aj01-42" value="" style="group" parent="1" vertex="1" connectable="0">
          <mxGeometry x="359" y="294" width="60" height="142" as="geometry" />
        </mxCell>
        <mxCell id="k9xyUMdjobzih4P8aj01-43" value="Client" style="sketch=0;outlineConnect=0;fontColor=#232F3E;gradientColor=none;strokeColor=#232F3E;fillColor=#ffffff;dashed=0;verticalLabelPosition=bottom;verticalAlign=top;align=center;html=1;fontSize=12;fontStyle=0;aspect=fixed;shape=mxgraph.aws4.resourceIcon;resIcon=mxgraph.aws4.client;" parent="k9xyUMdjobzih4P8aj01-42" vertex="1">
          <mxGeometry y="82" width="60" height="60" as="geometry" />
        </mxCell>
        <mxCell id="k9xyUMdjobzih4P8aj01-44" value="User" style="sketch=0;outlineConnect=0;fontColor=#232F3E;gradientColor=none;strokeColor=#232F3E;fillColor=#ffffff;dashed=0;verticalLabelPosition=bottom;verticalAlign=top;align=center;html=1;fontSize=12;fontStyle=0;aspect=fixed;shape=mxgraph.aws4.resourceIcon;resIcon=mxgraph.aws4.user;" parent="k9xyUMdjobzih4P8aj01-42" vertex="1">
          <mxGeometry width="60" height="60" as="geometry" />
        </mxCell>
        <mxCell id="k9xyUMdjobzih4P8aj01-45" value="" style="group" parent="1" vertex="1" connectable="0">
          <mxGeometry x="495" y="294" width="60" height="142" as="geometry" />
        </mxCell>
        <mxCell id="k9xyUMdjobzih4P8aj01-46" value="Client" style="sketch=0;outlineConnect=0;fontColor=#232F3E;gradientColor=none;strokeColor=#232F3E;fillColor=#ffffff;dashed=0;verticalLabelPosition=bottom;verticalAlign=top;align=center;html=1;fontSize=12;fontStyle=0;aspect=fixed;shape=mxgraph.aws4.resourceIcon;resIcon=mxgraph.aws4.client;" parent="k9xyUMdjobzih4P8aj01-45" vertex="1">
          <mxGeometry y="82" width="60" height="60" as="geometry" />
        </mxCell>
        <mxCell id="k9xyUMdjobzih4P8aj01-47" value="User" style="sketch=0;outlineConnect=0;fontColor=#232F3E;gradientColor=none;strokeColor=#232F3E;fillColor=#ffffff;dashed=0;verticalLabelPosition=bottom;verticalAlign=top;align=center;html=1;fontSize=12;fontStyle=0;aspect=fixed;shape=mxgraph.aws4.resourceIcon;resIcon=mxgraph.aws4.user;" parent="k9xyUMdjobzih4P8aj01-45" vertex="1">
          <mxGeometry width="60" height="60" as="geometry" />
        </mxCell>
        <mxCell id="k9xyUMdjobzih4P8aj01-48" value="" style="group" parent="1" vertex="1" connectable="0">
          <mxGeometry x="632" y="294" width="60" height="142" as="geometry" />
        </mxCell>
        <mxCell id="k9xyUMdjobzih4P8aj01-49" value="Client" style="sketch=0;outlineConnect=0;fontColor=#232F3E;gradientColor=none;strokeColor=#232F3E;fillColor=#ffffff;dashed=0;verticalLabelPosition=bottom;verticalAlign=top;align=center;html=1;fontSize=12;fontStyle=0;aspect=fixed;shape=mxgraph.aws4.resourceIcon;resIcon=mxgraph.aws4.client;" parent="k9xyUMdjobzih4P8aj01-48" vertex="1">
          <mxGeometry y="82" width="60" height="60" as="geometry" />
        </mxCell>
        <mxCell id="k9xyUMdjobzih4P8aj01-50" value="User" style="sketch=0;outlineConnect=0;fontColor=#232F3E;gradientColor=none;strokeColor=#232F3E;fillColor=#ffffff;dashed=0;verticalLabelPosition=bottom;verticalAlign=top;align=center;html=1;fontSize=12;fontStyle=0;aspect=fixed;shape=mxgraph.aws4.resourceIcon;resIcon=mxgraph.aws4.user;" parent="k9xyUMdjobzih4P8aj01-48" vertex="1">
          <mxGeometry width="60" height="60" as="geometry" />
        </mxCell>
        <mxCell id="k9xyUMdjobzih4P8aj01-73" value="AI 算力资源池" style="text;html=1;resizable=0;autosize=1;align=center;verticalAlign=middle;points=[];fillColor=#60a917;strokeColor=#2D7600;rounded=0;fontSize=18;fontColor=#ffffff;" parent="1" vertex="1">
          <mxGeometry x="39" y="690" width="122" height="26" as="geometry" />
        </mxCell>
      </root>
    </mxGraphModel>
  </diagram>
</mxfile>
